<svg width="49" height="48" viewBox="0 0 49 48" fill="none" xmlns="http://www.w3.org/2000/svg">
<path d="M24.5 0.75C21.3811 0.75 18.2928 1.36431 15.4113 2.55786C12.5298 3.75141 9.91161 5.50082 7.70621 7.70621C3.25222 12.1602 0.75 18.2011 0.75 24.5C0.75 34.9975 7.56625 43.9037 16.995 47.0625C18.1825 47.2525 18.5625 46.5163 18.5625 45.875V41.8612C11.9838 43.2862 10.5825 38.6787 10.5825 38.6787C9.49 35.9237 7.94625 35.1875 7.94625 35.1875C5.785 33.715 8.1125 33.7625 8.1125 33.7625C10.4875 33.9287 11.7463 36.2088 11.7463 36.2088C13.8125 39.8188 17.3037 38.75 18.6575 38.18C18.8712 36.6363 19.4888 35.5913 20.1538 34.9975C14.8813 34.4038 9.3475 32.3612 9.3475 23.3125C9.3475 20.6762 10.25 18.5625 11.7938 16.8762C11.5563 16.2825 10.725 13.8125 12.0312 10.6063C12.0312 10.6063 14.0263 9.965 18.5625 13.0288C20.4388 12.5063 22.4812 12.245 24.5 12.245C26.5188 12.245 28.5612 12.5063 30.4375 13.0288C34.9737 9.965 36.9688 10.6063 36.9688 10.6063C38.275 13.8125 37.4438 16.2825 37.2063 16.8762C38.75 18.5625 39.6525 20.6762 39.6525 23.3125C39.6525 32.385 34.095 34.38 28.7988 34.9737C29.6538 35.71 30.4375 37.1588 30.4375 39.3675V45.875C30.4375 46.5163 30.8175 47.2763 32.0288 47.0625C41.4575 43.88 48.25 34.9975 48.25 24.5C48.25 21.3811 47.6357 18.2928 46.4421 15.4113C45.2486 12.5298 43.4992 9.91161 41.2938 7.70621C39.0884 5.50082 36.4702 3.75141 33.5887 2.55786C30.7072 1.36431 27.6189 0.75 24.5 0.75Z" fill="#1E1E1E"/>
</svg>
