<svg width="58" height="52" viewBox="0 0 58 52" fill="none" xmlns="http://www.w3.org/2000/svg">
<g clip-path="url(#clip0_11_6)">
<path d="M30.4903 31.6875C33.7226 27.6148 41.0833 17.7328 41.0833 12.1875C41.0833 5.45391 35.676 0 29 0C22.324 0 16.9167 5.45391 16.9167 12.1875C16.9167 17.7328 24.2774 27.6148 27.5097 31.6875C28.2851 32.6625 29.725 32.6625 30.4903 31.6875ZM41.8889 51.0859L56.4795 45.1953C57.3958 44.8297 58 43.9258 58 42.9305V15.4375C58 13.7109 56.2781 12.5328 54.6872 13.1727L43.0066 17.8852C42.9563 18.007 42.9059 18.1391 42.8556 18.2609C42.5635 18.9516 42.2413 19.6523 41.8889 20.3531V51.0859ZM1.52049 19.0227C0.604167 19.3984 0 20.2922 0 21.2875V48.7906C0 50.5172 1.72188 51.6953 3.31285 51.0555L16.1111 45.8859V20.3531C15.7587 19.6523 15.4365 18.9516 15.1444 18.2609C14.5806 16.9203 14.0972 15.4781 13.8556 14.0461L1.51042 19.0227H1.52049ZM38.6667 25.8984C36.6024 29.0773 34.4073 31.9516 33.0076 33.7188C30.9434 36.3188 27.0566 36.3188 24.9924 33.7188C23.5927 31.9516 21.3976 29.0773 19.3333 25.8984V45.6422L38.6667 51.218V25.8984Z" fill="#147EFB"/>
</g>
<defs>
<clipPath id="clip0_11_6">
<rect width="58" height="52" fill="white"/>
</clipPath>
</defs>
</svg>
